<?xml version="1.0" standalone="no"?>
<!DOCTYPE svg PUBLIC "-//W3C//DTD SVG 1.1//EN" "http://www.w3.org/Graphics/SVG/1.1/DTD/svg11.dtd" >
<svg xmlns="http://www.w3.org/2000/svg" xmlns:xlink="http://www.w3.org/1999/xlink" version="1.1">
<metadata></metadata>
<defs>
<font id="chicagoplain" horiz-adv-x="1363" >
<font-face units-per-em="2048" ascent="1638" descent="-410" />
<missing-glyph horiz-adv-x="684" />
<glyph unicode="&#xd;" horiz-adv-x="684" />
<glyph unicode=" "  horiz-adv-x="684" />
<glyph unicode="&#x09;" horiz-adv-x="684" />
<glyph unicode="&#xa0;" horiz-adv-x="684" />
<glyph unicode="!" horiz-adv-x="1024" d="M340 0v340h342v-340h-342zM340 512v1024h342v-1024h-342z" />
<glyph unicode="&#x22;" horiz-adv-x="1196" d="M340 1024v512h172v-512h-172zM682 1024v512h170v-512h-170z" />
<glyph unicode="#" horiz-adv-x="1708" d="M172 512v172h297l86 340h-215v172h256l88 340h168l-84 -340h340l88 340h168l-84 -340h256v-172h-299l-84 -340h211v-172h-256l-84 -340h-172l88 340h-344l-84 -340h-172l88 340h-256zM641 684h340l86 340h-342z" />
<glyph unicode="$" horiz-adv-x="1196" d="M172 340h170l-2 -29q0 -123 172 -139v469l-242 227q-98 92 -98 240v88q0 301 340 340v172h172v-172q164 0 252 -85t88 -255h-170q-20 168 -170 168v-467l240 -229q100 -92 100 -240v-88q0 -301 -340 -340v-172h-172v172q-168 0 -254 90t-86 250zM408 1206q0 -43 19 -74.5 t39.5 -56t45.5 -51.5v340q-104 -41 -104 -158zM684 172q104 41 104 158q0 73 -104 182v-340z" />
<glyph unicode="%" horiz-adv-x="1875" d="M172 1194q0 141 100.5 241.5t239.5 100.5t240.5 -102.5t101.5 -239.5q0 -139 -99.5 -240.5t-242.5 -101.5q-139 0 -239.5 102.5t-100.5 239.5zM342 1194q0 -70 49 -120t121 -50t122 51t50 119q0 66 -50 118t-122 52t-121 -49t-49 -121zM428 0l768 1364h-342v172h598 l-854 -1536h-170zM1024 340q0 141 101.5 242.5t240.5 101.5t240.5 -100.5t101.5 -243.5q0 -139 -102.5 -239.5t-239.5 -100.5q-141 0 -241.5 102.5t-100.5 237.5zM1196 340q0 -70 49 -119t121 -49t121 51t49 117q0 72 -50 122t-120 50t-120 -50t-50 -122z" />
<glyph unicode="&#x26;" horiz-adv-x="1708" d="M172 340v172q0 117 83 228.5t257 111.5q-340 39 -340 344q0 137 99.5 238.5t240.5 101.5h342q141 0 241.5 -101.5t100.5 -238.5v-172h-342v172q0 70 -50 119t-120 49q-74 0 -121 -49q-51 -45 -51 -119v-88q0 -150 172 -168v-172q-172 -23 -172 -172v-256q0 -82 49 -125 t123 -43q70 0 120 42t50 126v344h342q72 0 121 48t49 120v172h170v-172q0 -141 -97.5 -240.5t-228.5 -99.5h-14v-172q0 -113 -98.5 -226.5t-243.5 -113.5h-342q-141 0 -240.5 114.5t-99.5 225.5z" />
<glyph unicode="'" horiz-adv-x="512" d="M172 1024v512h170v-512h-170z" />
<glyph unicode="(" horiz-adv-x="851" d="M172 410v716q0 268 156.5 425t341.5 157h14v-172q-172 -18 -172 -172v-1192q0 -154 172 -172v-172h-14q-184 0 -341 155.5t-157 426.5z" />
<glyph unicode=")" horiz-adv-x="851" d="M172 0q168 18 168 172l2 1192q0 154 -170 172v172h12q188 0 344 -155.5t156 -426.5v-716q0 -266 -155.5 -424t-344.5 -158h-12v172z" />
<glyph unicode="*" horiz-adv-x="1196" d="M162 870l266 154l-266 154l84 147l266 -154v308h172v-308l264 154l86 -147l-266 -154l266 -154l-86 -147l-266 154v-308h-170v308l-266 -154z" />
<glyph unicode="+" horiz-adv-x="1196" d="M172 512v172h340v340h172v-340h340v-172h-340v-340h-172v340h-340z" />
<glyph unicode="," horiz-adv-x="684" d="M172 0v340h340v-340q0 -303 -340 -340v168q170 0 170 172h-170z" />
<glyph unicode="-" horiz-adv-x="1196" d="M172 512v172h852v-172h-852z" />
<glyph unicode="." horiz-adv-x="684" d="M172 0v340h340v-340h-340z" />
<glyph unicode="/" horiz-adv-x="1196" d="M172 0l682 1708h170l-682 -1708h-170z" />
<glyph unicode="0" d="M172 340v856q0 137 99.5 238.5t240.5 101.5h342q141 0 241.5 -101.5t100.5 -238.5v-856q0 -139 -101.5 -239.5t-240.5 -100.5h-342q-139 0 -239.5 101.5t-100.5 238.5zM512 614l340 611q-37 139 -168 139q-74 0 -123 -49t-49 -119v-582zM516 315q12 -72 54 -107.5 t114 -35.5t121 51t49 117v582z" />
<glyph unicode="1" d="M340 1196v168l342 172h170v-1536h-340v1196h-172z" />
<glyph unicode="2" d="M172 0v172q0 178 330 459l22 20q330 281 330 457v88q0 68 -52 118t-118 50h-172q-170 0 -170 -168h-170q37 340 340 340h342q141 0 241.5 -101.5t100.5 -238.5v-88q0 -176 -332 -457l-22 -20q-330 -283 -330 -445v-14h684v-172h-1024z" />
<glyph unicode="3" d="M172 340h170q0 -82 45 -125t125 -43h172q70 0 120 49t50 119v344q0 37 -43 102.5t-127 65.5h-342v172l512 340h-682v172h1024l-2 -172l-510 -340h170q145 0 243.5 -111.5t98.5 -228.5v-344q0 -139 -101.5 -239.5t-240.5 -100.5h-342q-301 0 -340 340z" />
<glyph unicode="4" d="M0 512v172l684 852h340v-852h172v-172h-172v-512h-340v512h-684zM172 684h512v639z" />
<glyph unicode="5" d="M172 340h170q0 -82 45 -125t125 -43h172q70 0 120 49t50 119v344q0 68 -50 118t-120 50h-512v684h1024l-2 -172h-682v-340h342q141 0 241.5 -101.5t100.5 -238.5v-344q0 -139 -101.5 -239.5t-240.5 -100.5h-342q-301 0 -340 340z" />
<glyph unicode="6" d="M172 340v600q0 246 176 421t420 175h256v-172h-170q-141 0 -241.5 -102.5t-100.5 -237.5v-172q8 88 53 129q41 43 119 43h170q141 0 241.5 -101.5t100.5 -238.5v-344q0 -139 -101.5 -239.5t-240.5 -100.5h-342q-139 0 -239.5 101.5t-100.5 238.5zM512 340q0 -68 50 -118 t122 -50t121 51t49 117v344q0 68 -50 118t-120 50q-74 0 -123 -49t-49 -119v-344z" />
<glyph unicode="7" d="M172 1364v172h1024v-340l-88 -172l-84 -172q-172 -362 -172 -512v-340h-340v340q0 170 172 512l168 344v168h-680z" />
<glyph unicode="8" d="M172 340v88q0 121 84 230.5t256 109.5q-166 18 -256 104q-84 88 -84 236v88q0 137 99.5 238.5t240.5 101.5h342q141 0 241.5 -101.5t100.5 -238.5v-88q0 -145 -84 -231t-258 -109q170 0 256 -110.5t86 -229.5v-88q0 -113 -98.5 -226.5t-243.5 -113.5h-342 q-141 0 -240.5 114.5t-99.5 225.5zM512 340q0 -68 50 -118t122 -50q70 0 120 49t50 119v172q0 172 -170 172q-172 0 -172 -172v-172zM512 1024q0 -70 51 -121t121 -51q68 0 119 50t51 122v172q0 68 -50 118t-120 50q-74 0 -123 -49t-49 -119v-172z" />
<glyph unicode="9" d="M172 852v344q0 137 99.5 238.5t240.5 101.5h342q141 0 241.5 -101.5t100.5 -238.5v-600q0 -240 -176 -418t-424 -178h-254v172h170q141 0 240.5 101.5t99.5 238.5v172q-16 -172 -168 -172h-172q-139 0 -239.5 100.5t-100.5 239.5zM512 852q0 -68 50 -118t122 -50 q70 0 120 50t50 118v344q0 68 -50 118t-120 50q-72 0 -122 -50t-50 -118v-344z" />
<glyph unicode=":" horiz-adv-x="684" d="M172 0v340h340v-340h-340zM172 852v344h340v-344h-340z" />
<glyph unicode=";" horiz-adv-x="684" d="M172 0v340h340v-340q0 -303 -340 -340v168q170 0 170 172h-170zM172 852v344h340v-344h-340z" />
<glyph unicode="&#x3c;" horiz-adv-x="1024" d="M35 768l682 596h256l-682 -596l682 -596h-256z" />
<glyph unicode="=" d="M172 340v172h1024v-172h-1024zM172 684v168h1024v-168h-1024z" />
<glyph unicode="&#x3e;" horiz-adv-x="1024" d="M51 172l684 596l-684 596h256l684 -596l-684 -596h-256z" />
<glyph unicode="?" d="M172 1196q37 340 340 340h340q141 0 242.5 -101.5t101.5 -238.5q0 -223 -197 -309l-26 -13q-92 -41 -106.5 -83.5t-14.5 -106.5v-172h-340v172q0 209 223 344l25 16q92 53 92 152q0 70 -49 119t-119 49h-172q-158 0 -172 -168h-168zM512 0v340h340v-340h-340z" />
<glyph unicode="@" horiz-adv-x="1875" d="M172 596v344q0 246 176 421t420 175h342q240 0 419 -176t179 -420v-428q0 -70 -51 -121t-121 -51h-340q-150 0 -172 172q-10 -86 -59.5 -129t-141.5 -43q-55 0 -105 23.5t-128 100.5t-78 220v168q0 143 101.5 243.5t240.5 100.5h342v-600q0 -84 84 -84h172q84 0 84 84 v344q0 172 -124 298t-302 126h-342q-170 0 -298 -123t-128 -301v-344q0 -170 124 -297t302 -127h598v-172h-598q-240 0 -418 178t-178 418zM684 684q0 -74 49 -123t121 -49q70 0 120 50t50 122v340h-170q-70 0 -120 -50t-50 -122v-168z" />
<glyph unicode="A" d="M172 0v1196q0 137 99.5 238.5t240.5 101.5h342q141 0 241.5 -101.5t100.5 -238.5v-1196h-342v684h-342v-684h-340zM512 852h342v344q0 68 -50 118t-120 50q-74 0 -123 -49t-49 -119v-344z" />
<glyph unicode="B" d="M172 0v1536h682q141 0 241.5 -101.5t100.5 -238.5v-88q0 -145 -84 -231t-258 -109q172 0 257 -103.5t85 -236.5v-88q0 -139 -101.5 -239.5t-240.5 -100.5h-682zM512 172h172q70 0 120 50t50 118v172q0 172 -170 172h-172v-512zM512 852h172q68 0 119 50t51 122v172 q0 68 -50 118t-120 50h-172v-512z" />
<glyph unicode="C" d="M172 340v856q0 135 97.5 237.5t242.5 102.5h342q162 0 252 -86t90 -254h-172q-18 168 -170 168h-170q-74 0 -123 -49t-49 -119v-856q0 -68 50 -118t122 -50h170q150 0 170 168h172q0 -166 -89 -253t-253 -87h-342q-139 0 -239.5 101.5t-100.5 238.5z" />
<glyph unicode="D" d="M172 0v1536h682q141 0 241.5 -101.5t100.5 -238.5v-856q0 -139 -101.5 -239.5t-240.5 -100.5h-682zM512 172h172q72 0 121 51t49 117v856q0 68 -50 118t-120 50h-172v-1192z" />
<glyph unicode="E" horiz-adv-x="1196" d="M172 0v1536h852v-172h-512v-512h342v-168h-342v-512h512v-172h-852z" />
<glyph unicode="F" horiz-adv-x="1196" d="M172 0v1536h852v-172h-512v-512h342v-168h-342v-684h-340z" />
<glyph unicode="G" d="M172 340v856q0 135 97.5 237.5t242.5 102.5h342q162 0 252 -86t90 -254h-172q-18 168 -170 168h-170q-74 0 -123 -49t-49 -119v-856q0 -70 51 -119t121 -49q170 0 170 168v344h-170v168h512v-512q0 -166 -109.5 -253t-232.5 -87h-342q-139 0 -239.5 101.5t-100.5 238.5z " />
<glyph unicode="H" d="M172 0v1536h340v-684h342v684h342v-1536h-342v684h-342v-684h-340z" />
<glyph unicode="I" horiz-adv-x="1024" d="M340 0v1536h342v-1536h-342z" />
<glyph unicode="J" horiz-adv-x="1196" d="M0 340v344h340v-344q0 -68 50 -118t122 -50t122 50t50 118v1196h340v-1196q0 -166 -85 -253t-255 -87h-344q-166 0 -256 84q-84 90 -84 256z" />
<glyph unicode="K" horiz-adv-x="1536" d="M172 0v1536h340v-627l553 627h301l-682 -768l682 -768h-342l-512 596v-596h-340z" />
<glyph unicode="L" horiz-adv-x="1196" d="M172 0v1536h340v-1364h512v-172h-852z" />
<glyph unicode="M" horiz-adv-x="2048" d="M172 0v1536h76l731 -727l729 727h170v-1536h-342v940l-600 -600l-594 600v-940h-170z" />
<glyph unicode="N" horiz-adv-x="1536" d="M172 0v1536h76l948 -852v852h170v-1536h-78l-946 852v-852h-170z" />
<glyph unicode="O" d="M172 340v856q0 137 99.5 238.5t240.5 101.5h342q141 0 241.5 -101.5t100.5 -238.5v-856q0 -139 -101.5 -239.5t-240.5 -100.5h-342q-139 0 -239.5 101.5t-100.5 238.5zM512 340q0 -68 50 -118t122 -50t121 51t49 117v856q0 68 -50 118t-120 50q-74 0 -123 -49t-49 -119 v-856z" />
<glyph unicode="P" d="M172 0v1536h682q141 0 241.5 -101.5t100.5 -238.5v-172q0 -139 -100.5 -239.5t-241.5 -100.5h-342v-684h-340zM512 852h172q68 0 119 50t51 122v172q0 68 -50 118t-120 50h-172v-512z" />
<glyph unicode="Q" d="M172 340v856q0 137 99.5 238.5t240.5 101.5h342q141 0 241.5 -101.5t100.5 -238.5v-856q0 -301 -342 -340h342v-172h-256q-149 0 -172 172h-256q-139 0 -239.5 101.5t-100.5 238.5zM512 340q0 -68 50 -118t122 -50t121 51t49 117v856q0 68 -50 118t-120 50 q-74 0 -123 -49t-49 -119v-856z" />
<glyph unicode="R" d="M172 0v1536h682q141 0 241.5 -101.5t100.5 -238.5v-94q0 -115 -78 -220.5t-264 -105.5h170q70 0 121 -51t51 -121v-604h-342v512q0 70 -51 121t-119 51h-172v-684h-340zM512 852h172q68 0 119 50t51 122v172q0 68 -50 118t-120 50h-172v-512z" />
<glyph unicode="S" horiz-adv-x="1196" d="M172 340h170l-2 -27q0 -70 52 -105.5t120 -35.5q90 0 131 44t41 128q0 66 -51 119l-363 405q-98 111 -98 240v88q0 137 98.5 238.5t241.5 101.5h172q164 0 252 -85t88 -255h-170q-23 170 -162 170q-88 0 -134 -43t-46 -129q0 -66 51 -119l361 -407q100 -109 100 -240v-88 q0 -139 -100.5 -239.5t-239.5 -100.5h-172q-166 0 -256 84q-84 90 -84 256z" />
<glyph unicode="T" horiz-adv-x="1024" d="M0 1364v172h1024v-172h-340v-1364h-344v1364h-340z" />
<glyph unicode="U" d="M172 340v1196h340v-1196q0 -68 50 -118t122 -50t121 51t49 117v1196h342v-1196q0 -139 -101.5 -239.5t-240.5 -100.5h-342q-139 0 -239.5 101.5t-100.5 238.5z" />
<glyph unicode="V" d="M172 0v1536h340v-1364h172q72 0 121 51t49 117v1196h342v-952q0 -236 -174 -410t-410 -174h-440z" />
<glyph unicode="W" horiz-adv-x="2048" d="M172 0v1536h340v-1364h172q72 0 121 51t49 117v1196h342v-1364h170q72 0 121 51t49 117v1196h342v-952q0 -236 -174 -410t-410 -174h-440v55q-98 -55 -242 -55h-440z" />
<glyph unicode="X" horiz-adv-x="1366" d="M172 0v428q0 297 340 340q-340 39 -340 340v428h340v-512q0 -70 51 -121t121 -51q68 0 119 50t51 122v512h342v-428q0 -297 -342 -340q342 -43 342 -342v-426h-342v512q0 70 -51 121t-119 51q-70 0 -121 -50t-51 -122v-512h-340z" />
<glyph unicode="Y" d="M172 1024v512h340v-512q0 -70 51 -121t121 -51q68 0 119 50t51 122v512h342v-512q0 -301 -342 -340v-684h-342v684q-340 37 -340 340z" />
<glyph unicode="Z" d="M172 0v172l682 1192h-682v172h1024v-172l-684 -1192h684v-172h-1024z" />
<glyph unicode="[" horiz-adv-x="851" d="M172 -172v1880h512v-172h-172v-1536h172v-172h-512z" />
<glyph unicode="\" horiz-adv-x="1196" d="M172 1708h170l682 -1708h-172z" />
<glyph unicode="]" horiz-adv-x="851" d="M172 0h170v1536h-170v172h512v-1880h-512v172z" />
<glyph unicode="^" d="M172 1024l512 512l512 -512h-172l-340 340l-342 -340h-170z" />
<glyph unicode="_" d="M0 0h1364v-172h-1364v172z" />
<glyph unicode="`" horiz-adv-x="1024" d="M340 1708h172l172 -344h-172z" />
<glyph unicode="a" d="M172 340q0 143 101.5 243.5t238.5 100.5h342v168q0 72 -50 122t-120 50h-172q-147 0 -170 -172h-170q37 344 340 344h342q143 0 240 -102q102 -98 102 -242v-852h-342v172q-18 -172 -170 -172h-172q-139 0 -239.5 101.5t-100.5 238.5zM512 342q0 -70 50 -120t122 -50 t121 51t49 117v172h-170q-72 0 -122 -50t-50 -120z" />
<glyph unicode="b" d="M172 0v1536h340v-512q8 84 52 128t120 44h170q143 0 240 -102q102 -98 102 -242v-512q0 -139 -101.5 -239.5t-240.5 -100.5h-682zM512 172h172q72 0 121 51t49 117v512q0 72 -50 122t-120 50q-72 0 -122 -50t-50 -122v-680z" />
<glyph unicode="c" horiz-adv-x="1196" d="M172 340v512q0 143 101.5 243.5t238.5 100.5h172q162 0 251 -87t89 -257h-170q-18 172 -170 172q-72 0 -122 -50t-50 -122v-512q0 -68 50 -118t122 -50q150 0 170 168h170q0 -166 -89 -253t-251 -87h-172q-139 0 -239.5 101.5t-100.5 238.5z" />
<glyph unicode="d" d="M172 340v512q0 143 101.5 243.5t238.5 100.5h342v340h342v-1536h-342v172q-18 -172 -170 -172h-172q-139 0 -239.5 101.5t-100.5 238.5zM512 340q0 -68 50 -118t122 -50t121 51t49 117v684h-170q-72 0 -122 -50t-50 -122v-512z" />
<glyph unicode="e" d="M172 340v512q0 143 101.5 243.5t238.5 100.5h342q143 0 240 -102q102 -98 102 -242v-340h-684v-172q0 -68 50 -118t122 -50h170q170 0 170 168h172q-41 -340 -342 -340h-342q-139 0 -239.5 101.5t-100.5 238.5zM512 684h342v168q0 72 -50 122t-120 50q-72 0 -122 -50 t-50 -122v-168z" />
<glyph unicode="f" horiz-adv-x="1024" d="M172 1024v172h170v14q0 129 96.5 227.5t229.5 98.5h356v-172h-186q-63 0 -111 -45q-43 -47 -43 -109v-14h170v-172h-170v-1024h-342v1024h-170z" />
<glyph unicode="g" d="M172 -172h170q0 -82 45 -125t125 -43h172q70 0 120 49t50 119v344q-18 -172 -170 -172h-172q-139 0 -239.5 101.5t-100.5 238.5v512q0 143 101.5 243.5t238.5 100.5h684v-1368q0 -139 -100.5 -239.5t-241.5 -100.5h-342q-301 0 -340 340zM512 340q0 -68 50 -118t122 -50 t121 51t49 117v684h-170q-72 0 -122 -50t-50 -122v-512z" />
<glyph unicode="h" d="M172 0v1536h340v-512q8 84 52 128t120 44h170q143 0 240 -102q102 -98 102 -242v-852h-342v852q0 72 -50 122t-120 50q-72 0 -122 -50t-50 -122v-852h-340z" />
<glyph unicode="i" horiz-adv-x="684" d="M172 0v1196h340v-1196h-340zM172 1364v172h340v-172h-340z" />
<glyph unicode="j" horiz-adv-x="1024" d="M0 0h172q0 -84 44 -128t124 -44q70 0 121 50t51 122v1196h340v-1196q0 -139 -99.5 -239.5t-240.5 -100.5h-172q-301 0 -340 340zM512 1364v172h340v-172h-340z" />
<glyph unicode="k" d="M172 0v1536h340v-768l512 428h342l-715 -600l715 -596h-342l-512 428v-428h-340z" />
<glyph unicode="l" horiz-adv-x="684" d="M172 0v1536h340v-1536h-340z" />
<glyph unicode="m" horiz-adv-x="2048" d="M172 0v1196h340v-172q8 84 52 128t120 44h170q172 0 256 -121q43 61 104.5 91t151.5 30h170q139 0 240.5 -101.5t101.5 -242.5v-852h-342v852q0 72 -50 122t-120 50t-120 -50t-50 -122v-852h-342v852q0 72 -50 122t-120 50q-72 0 -122 -50t-50 -122v-852h-340z" />
<glyph unicode="n" d="M172 0v1196h340v-172q8 84 52 128t120 44h170q143 0 240 -102q102 -98 102 -242v-852h-342v852q0 72 -50 122t-120 50q-72 0 -122 -50t-50 -122v-852h-340z" />
<glyph unicode="o" d="M172 340v512q0 143 101.5 243.5t238.5 100.5h342q143 0 240 -102q102 -98 102 -242v-512q0 -139 -101.5 -239.5t-240.5 -100.5h-342q-139 0 -239.5 101.5t-100.5 238.5zM512 340q0 -68 50 -118t122 -50t121 51t49 117v512q0 72 -50 122t-120 50q-72 0 -122 -50t-50 -122 v-512z" />
<glyph unicode="p" d="M172 -340v1536h340v-172q0 82 33 116t64.5 45t74.5 11h170q143 0 240 -102q102 -98 102 -242v-512q0 -139 -101.5 -239.5t-240.5 -100.5h-342v-340h-340zM512 172h172q70 0 120 49t50 119v512q0 72 -51 122t-119 50q-72 0 -122 -50t-50 -122v-680z" />
<glyph unicode="q" d="M172 342v512q0 137 98.5 239.5t241.5 102.5h684v-1536h-344l2 512q-18 -172 -170 -172h-172q-139 0 -239.5 101.5t-100.5 240.5zM512 342q0 -70 50 -120t122 -50t121 51t49 117v684h-170q-72 0 -122 -50t-50 -120v-512z" />
<glyph unicode="r" horiz-adv-x="1024" d="M172 0v1196h340v-344q18 174 104 259t238 85h170v-344h-340q-74 0 -123 -49t-49 -119v-684h-340z" />
<glyph unicode="s" horiz-adv-x="1196" d="M172 340h170q18 -170 160 -170q88 0 137 37q45 39 45 106q0 70 -225.5 193t-256 194.5t-30.5 151.5q0 143 101.5 243.5t238.5 100.5h172q162 0 251 -87t89 -257h-170q-23 172 -162 172q-88 0 -134 -36t-46 -105q0 -72 223 -193t256 -193.5t33 -152.5 q0 -143 -102.5 -243.5t-237.5 -100.5h-172q-340 0 -340 340z" />
<glyph unicode="t" horiz-adv-x="1024" d="M172 1024v172h170v340h342v-340h170v-172h-170v-684q0 -84 53.5 -126t100.5 -42h16v-172h-170q-143 0 -242.5 102.5t-99.5 237.5v684h-170z" />
<glyph unicode="u" d="M172 340v856h340v-856q0 -68 50 -118t122 -50t121 51t49 117v856h342v-1196h-342v172q-18 -172 -170 -172h-172q-139 0 -239.5 101.5t-100.5 238.5z" />
<glyph unicode="v" d="M172 0v1196h340v-1024h172q72 0 121 51t49 117v856h342v-612q0 -236 -174 -410t-410 -174h-440z" />
<glyph unicode="w" horiz-adv-x="2048" d="M172 0v1196h340v-1024h172q72 0 121 51t49 117v856h342v-1024h170q72 0 121 51t49 117v856h342v-612q0 -236 -174 -410t-410 -174h-440v55q-98 -55 -242 -55h-440z" />
<glyph unicode="x" d="M172 0v256q0 152 85 237t255 103q-168 20 -254 107.5t-86 236.5v256h340v-344q0 -68 50 -118t122 -50q70 0 120 49t50 119v344h342v-256q0 -152 -86 -238t-256 -106q170 -18 256 -103t86 -237v-256h-342v340q0 72 -50 122t-120 50q-72 0 -122 -50t-50 -122v-340h-340z " />
<glyph unicode="y" d="M172 -172h170q0 -82 45 -125t125 -43h172q70 0 120 49t50 119v344q-18 -172 -170 -172h-172q-139 0 -239.5 101.5t-100.5 238.5v856h340v-856q0 -68 50 -118t122 -50t121 51t49 117v856h342v-1368q0 -139 -100.5 -239.5t-241.5 -100.5h-342q-301 0 -340 340z" />
<glyph unicode="z" d="M172 0v172l682 852h-682v172h1024v-172l-684 -852h684v-172h-1024z" />
<glyph unicode="{" horiz-adv-x="851" d="M172 684v168h14q156 0 156 172v340q0 301 342 344v-172q-172 0 -172 -172v-340q0 -152 -117 -256q117 -109 117 -256v-340q0 -172 172 -172v-172q-342 41 -342 344v340q0 172 -156 172h-14z" />
<glyph unicode="|" horiz-adv-x="851" d="M340 -172v1880h172v-1880h-172z" />
<glyph unicode="}" horiz-adv-x="851" d="M172 0q84 0 127 45t43 127v340q0 145 115 256q-115 109 -115 256v340q0 80 -44 126t-126 46v172q340 -39 340 -344v-340q0 -172 156 -172h16v-168h-16q-156 0 -156 -172v-340q0 -301 -340 -344v172z" />
<glyph unicode="~" d="M172 852q37 344 340 344q98 0 213 -100l23 -21q57 -51 106 -51q147 0 170 172h172q-41 -344 -342 -344q-96 0 -213 100l-23 23q-59 49 -106 49q-147 0 -170 -172h-170z" />
<glyph unicode="&#xa0;" />
<glyph unicode="&#xa1;" horiz-adv-x="1024" d="M340 0v1024h342v-1024h-342zM340 1196v340h342v-340h-342z" />
<glyph unicode="&#xa2;" horiz-adv-x="1196" d="M172 852v344q0 297 340 340v172h172v-172q160 0 250 -90t90 -250h-170q-18 152 -170 168v-680q152 16 170 168h170q0 -152 -88 -238t-252 -102v-172h-172v172q-340 39 -340 340zM342 852q0 -150 170 -168v680q-170 -18 -170 -168v-344z" />
<glyph unicode="&#xa3;" horiz-adv-x="1536" d="M172 0v172h170v512h-170v168h170v344q0 139 100.5 239.5t241.5 100.5h170q299 0 342 -342h-172q0 84 -43 127t-119 43q-92 0 -135 -42t-43 -126v-344h170v-168h-170v-512h340q158 0 172 168h170q-41 -340 -342 -340h-852z" />
<glyph unicode="&#xa4;" d="M172 463l217 217q-2 6 -15.5 35.5t-22.5 62.5t-9 76q0 86 47 172l-217 217l121 121l217 -217q43 25 88 37t86 12t76 -10t53 -17.5t43 -21.5l219 217l121 -121l-219 -217q23 -41 35 -85t12 -89q0 -41 -8 -70.5t-15.5 -51t-23.5 -50.5l219 -217l-121 -123l-219 219 q-29 -14 -43 -20.5t-50 -16.5t-79 -10q-41 0 -78 10t-49 15.5t-49 21.5l-215 -219zM512 852q0 -68 50 -118t122 -50q70 0 120 48t50 120t-50 122t-120 50q-72 0 -122 -50t-50 -122z" />
<glyph unicode="&#xa5;" d="M172 340v172h340v172h-340v168h340q-168 20 -254 107.5t-86 236.5v340h340v-340q0 -72 50 -122t122 -50q68 0 119 50t51 122v340h342v-340q0 -152 -86 -238t-256 -106h342v-168h-342v-172h342v-172h-342v-340h-342v340h-340z" />
<glyph unicode="&#xa7;" horiz-adv-x="1196" d="M172 -172h170q20 -168 170 -168h172q68 0 121 49q49 53 49 119q0 78 -49 121l-535 491q-98 92 -98 244q0 158 115 254l-17 14q-98 96 -98 244q0 137 98.5 238.5t241.5 101.5h172q164 0 252 -85t88 -255h-170q-20 168 -170 168h-172q-72 0 -121 -51t-49 -117 q0 -78 49 -121l533 -491q100 -92 100 -244q0 -156 -117 -254l19 -14q98 -92 98 -244q0 -137 -98.5 -238.5t-241.5 -101.5h-172q-164 0 -252 85t-88 255zM342 682q0 -74 49 -121l391 -358q72 61 72 139q0 74 -49 121l-391 360q-72 -66 -72 -141z" />
<glyph unicode="&#xa8;" horiz-adv-x="1024" d="M172 1364v213h199v-213h-199zM653 1364v213h199v-213h-199z" />
<glyph unicode="&#xa9;" horiz-adv-x="1708" d="M172 512v512q0 211 152.5 361.5t359.5 150.5h340q211 0 361.5 -151.5t150.5 -360.5v-512q0 -211 -151.5 -361.5t-360.5 -150.5h-340q-207 0 -359.5 152.5t-152.5 359.5zM342 512q0 -139 99.5 -239.5t242.5 -100.5h340q139 0 239.5 100.5t100.5 239.5v512 q0 139 -99.5 239.5t-240.5 100.5h-340q-141 0 -241.5 -100.5t-100.5 -239.5v-512zM512 684v168q0 135 99.5 239.5t252.5 104.5q158 0 245 -87t87 -257h-172q-18 172 -170 172q-70 0 -120 -50t-50 -122v-168q0 -74 49 -123t121 -49q152 0 170 172h172q0 -170 -89 -257 t-251 -87q-141 0 -242.5 103.5t-101.5 240.5z" />
<glyph unicode="&#xaa;" horiz-adv-x="1196" d="M172 172v168h852v-168h-852zM172 805v49q0 123 84 208t199 85h284v96q0 145 -141 146h-115q-127 0 -141 -146h-170q31 293 283 293h284q115 0 200 -87t85 -206v-731h-285v145q-16 -145 -141 -145h-143q-115 0 -199 85t-84 208zM455 829q0 -70 35.5 -107.5t107.5 -37.5 q141 0 141 145v148h-141q-143 0 -143 -148z" />
<glyph unicode="&#xab;" horiz-adv-x="1536" d="M172 596l596 598v-170l-426 -428l426 -426v-170zM684 596l596 598v-170l-426 -428l426 -426v-170z" />
<glyph unicode="&#xac;" horiz-adv-x="1196" d="M172 512v172h852v-512h-170v340h-682z" />
<glyph unicode="&#xad;" horiz-adv-x="1196" d="M172 512v172h852v-172h-852z" />
<glyph unicode="&#xae;" horiz-adv-x="1708" d="M172 512v512q0 211 152.5 361.5t359.5 150.5h340q211 0 361.5 -151.5t150.5 -360.5v-512q0 -211 -151.5 -361.5t-360.5 -150.5h-340q-207 0 -359.5 152.5t-152.5 359.5zM342 512q0 -139 99.5 -239.5t242.5 -100.5h340q139 0 239.5 100.5t100.5 239.5v512 q0 139 -99.5 239.5t-240.5 100.5h-340q-141 0 -241.5 -100.5t-100.5 -239.5v-512zM512 340v856h512q66 0 119 -51t53 -121v-84q0 -76 -42 -118t-130 -54q86 0 129 -42t43 -122v-264h-172v172q0 68 -49 121q-55 51 -121 51h-170v-344h-172zM684 852h256q37 0 64 22 q20 25 20 66q0 84 -84 84h-256v-172z" />
<glyph unicode="&#xb0;" horiz-adv-x="1024" d="M172 1196q0 139 100.5 239.5t239.5 100.5t240.5 -102.5t101.5 -239.5q0 -139 -99.5 -240.5t-242.5 -101.5q-139 0 -239.5 102.5t-100.5 241.5zM342 1196q0 -72 49 -122t121 -50t122 51t50 121q0 63 -50 115.5t-122 52.5t-121 -49t-49 -119z" />
<glyph unicode="&#xb1;" horiz-adv-x="1196" d="M172 0v172h852v-172h-852zM172 684v168h340v344h172v-344h340v-168h-340v-344h-172v344h-340z" />
<glyph unicode="&#xb4;" horiz-adv-x="1024" d="M340 1364l172 344h172l-172 -344h-172z" />
<glyph unicode="&#xb5;" horiz-adv-x="1708" d="M186 -340l308 1536h342l-170 -856l-4 -33q0 -135 139 -135q172 0 205 168l170 856h342l-170 -856l-5 -33q0 -119 142 -135l-35 -172h-170q-139 0 -139 131l2 41q-55 -172 -205 -172h-170q-139 0 -139 131l2 41l-103 -512h-342z" />
<glyph unicode="&#xb6;" horiz-adv-x="1536" d="M84 1108q0 176 126 302t302 126h852v-1536h-170v1364h-170v-1364h-172v684h-340q-176 0 -302 126t-126 298zM512 852h340v512h-340v-512z" />
<glyph unicode="&#xb7;" horiz-adv-x="684" d="M172 512v340h340v-340h-340z" />
<glyph unicode="&#xb8;" horiz-adv-x="1024" d="M377 -494l63 158l37 -4q41 0 61.5 20.5t20.5 63.5t-20.5 63.5t-63.5 20.5h-88v172h88q104 0 180 -76t76 -180q0 -111 -82 -183.5t-166 -72.5q-35 0 -106 18z" />
<glyph unicode="&#xb9;" horiz-adv-x="2220" d="M152 1536h616v-172h-340l340 -680h852v340l428 -428l-428 -424v340h-956z" />
<glyph unicode="&#xba;" horiz-adv-x="1196" d="M172 172v168h852v-168h-852zM172 805v438q0 123 84 208t199 85h284q115 0 200 -87t85 -206v-438q0 -119 -84 -206t-201 -87h-284q-115 0 -199 85t-84 208zM455 829q0 -145 143 -145q141 0 141 145v390q0 145 -141 145q-143 0 -143 -145v-390z" />
<glyph unicode="&#xbb;" horiz-adv-x="1536" d="M86 0v170l426 426l-426 428v170l598 -598zM598 0v170l426 426l-426 428v170l598 -598z" />
<glyph unicode="&#xbc;" horiz-adv-x="1875" d="M172 172v1192h170v-1192h-170zM428 768l426 428v-344h854v-168h-854v-344z" />
<glyph unicode="&#xbd;" horiz-adv-x="2220" d="M172 0v1536h1194l768 -768l-768 -768h-1194zM342 172h938l598 596l-598 596h-938v-1192zM492 526l241 242l-241 242l120 120l242 -241l242 241l121 -120l-242 -242l242 -242l-121 -120l-242 241l-242 -241z" />
<glyph unicode="&#xbe;" horiz-adv-x="2220" d="M172 512v1024h512v-172h-342v-680h682v340l428 -428l-428 -424v340h-852zM1024 1364v172h1024v-172h-1024zM1620 512v172h428v-172h-428z" />
<glyph unicode="&#xbf;" d="M172 340q0 223 193 309l28 13q92 41 105.5 78.5t13.5 111.5v172h340v-172q0 -209 -221 -344l-27 -16q-92 -55 -92 -152q0 -68 50 -118t122 -50h168q172 0 172 168h172q-41 -340 -344 -340h-340q-139 0 -239.5 101.5t-100.5 238.5zM512 1196v340h340v-340h-340z" />
<glyph unicode="&#xc0;" d="M172 0v1196q0 137 99.5 238.5t240.5 101.5h342q141 0 241.5 -101.5t100.5 -238.5v-1196h-342v684h-342v-684h-340zM510 2048h172l172 -344h-172zM512 852h342v344q0 68 -50 118t-120 50q-74 0 -123 -49t-49 -119v-344z" />
<glyph unicode="&#xc1;" d="M172 0v1196q0 137 99.5 238.5t240.5 101.5h342q141 0 241.5 -101.5t100.5 -238.5v-1196h-342v684h-342v-684h-340zM510 1704l172 344h172l-172 -344h-172zM512 852h342v344q0 68 -50 118t-120 50q-74 0 -123 -49t-49 -119v-344z" />
<glyph unicode="&#xc2;" d="M172 0v1196q0 137 99.5 238.5t240.5 101.5h342q141 0 241.5 -101.5t100.5 -238.5v-1196h-342v684h-342v-684h-340zM342 1704l256 344h168l256 -344h-168l-172 172l-172 -172h-168zM512 852h342v344q0 68 -50 118t-120 50q-74 0 -123 -49t-49 -119v-344z" />
<glyph unicode="&#xc3;" d="M172 0v1196q0 137 99.5 238.5t240.5 101.5h342q141 0 241.5 -101.5t100.5 -238.5v-1196h-342v684h-342v-684h-340zM172 1704q37 344 340 344q98 0 213 -100l23 -21q57 -51 106 -51q147 0 170 172h172q-41 -344 -342 -344q-96 0 -213 100l-23 23q-59 49 -106 49 q-147 0 -170 -172h-170zM512 852h342v344q0 68 -50 118t-120 50q-74 0 -123 -49t-49 -119v-344z" />
<glyph unicode="&#xc4;" d="M172 0v1196q0 137 99.5 238.5t240.5 101.5h342q141 0 241.5 -101.5t100.5 -238.5v-1196h-342v684h-342v-684h-340zM342 1704v213h199v-213h-199zM512 852h342v344q0 68 -50 118t-120 50q-74 0 -123 -49t-49 -119v-344zM823 1704v213h199v-213h-199z" />
<glyph unicode="&#xc5;" d="M172 0v1196q0 236 227 322q-27 49 -42 100t-15 86q0 143 100.5 243.5t241.5 100.5q139 0 239.5 -99.5t100.5 -244.5q0 -29 -2 -43t-13.5 -54t-41.5 -89q229 -84 229 -322v-1196h-342v684h-342v-684h-340zM512 852h342v344q0 68 -50 118t-120 50q-74 0 -123 -49t-49 -119 v-344zM512 1706q0 -70 50 -120t122 -50q70 0 120 50t50 120t-50 120t-120 50q-74 0 -123 -49t-49 -121z" />
<glyph unicode="&#xc6;" horiz-adv-x="1875" d="M172 0v1196q0 137 99.5 238.5t240.5 101.5h1196v-172h-512v-512h340v-168h-340v-512h512v-172h-854v684h-342v-684h-340zM512 852h342v344q0 68 -50 118t-120 50q-74 0 -123 -49t-49 -119v-344z" />
<glyph unicode="&#xc7;" d="M172 340v856q0 135 97.5 237.5t242.5 102.5h342q162 0 252 -86t90 -254h-172q-18 168 -170 168h-170q-74 0 -123 -49t-49 -119v-856q0 -68 50 -118t122 -50h170q150 0 170 168h172q0 -166 -89 -253t-253 -87h-170q104 0 180 -75t76 -181q0 -104 -69.5 -180t-178.5 -76 q-34 0 -106 18l65 158l35 -4q43 0 62.5 20.5t19.5 63.5t-20.5 63.5t-63.5 20.5h-86v172h-86q-139 0 -239.5 101.5t-100.5 238.5z" />
<glyph unicode="&#xc8;" horiz-adv-x="1196" d="M172 0v1536h852v-172h-512v-512h342v-168h-342v-512h512v-172h-852zM340 2048h172l172 -344h-172z" />
<glyph unicode="&#xc9;" horiz-adv-x="1196" d="M172 0v1536h852v-172h-512v-512h342v-168h-342v-512h512v-172h-852zM510 1704l172 344h172l-172 -344h-172z" />
<glyph unicode="&#xca;" horiz-adv-x="1196" d="M172 0v1536h852v-172h-512v-512h342v-168h-342v-512h512v-172h-852zM221 1704l256 344h168l256 -344h-168l-172 172l-172 -172h-168z" />
<glyph unicode="&#xcb;" horiz-adv-x="1196" d="M172 0v1536h852v-172h-512v-512h342v-168h-342v-512h512v-172h-852zM242 1704v213h199v-213h-199zM723 1704v213h199v-213h-199z" />
<glyph unicode="&#xcc;" horiz-adv-x="1024" d="M340 0v1536h342v-1536h-342zM340 2048h172l172 -344h-172z" />
<glyph unicode="&#xcd;" horiz-adv-x="1024" d="M340 0v1536h342v-1536h-342zM340 1704l172 344h172l-172 -344h-172z" />
<glyph unicode="&#xce;" horiz-adv-x="1024" d="M172 1704l256 344h168l256 -344h-168l-172 172l-172 -172h-168zM340 0v1536h342v-1536h-342z" />
<glyph unicode="&#xcf;" horiz-adv-x="1024" d="M172 1704v213h199v-213h-199zM340 0v1536h342v-1536h-342zM653 1704v213h199v-213h-199z" />
<glyph unicode="&#xd0;" horiz-adv-x="2560" d="M172 1024v512h1024l680 -1024h512v-512h-1024l-680 1024h-512zM340 1196h512l684 -1024h684v168h-512l-684 1024h-684v-168zM1708 1024v512h680v-512h-680zM1876 1196h344v168h-344v-168z" />
<glyph unicode="&#xd1;" horiz-adv-x="1536" d="M172 0v1536h76l948 -852v852h170v-1536h-78l-946 852v-852h-170zM256 1704q37 344 340 344q98 0 213 -100l23 -21q57 -51 106 -51q147 0 170 172h172q-41 -344 -342 -344q-96 0 -213 100l-23 23q-59 49 -106 49q-147 0 -170 -172h-170z" />
<glyph unicode="&#xd2;" d="M172 340v856q0 137 99.5 238.5t240.5 101.5h342q141 0 241.5 -101.5t100.5 -238.5v-856q0 -139 -101.5 -239.5t-240.5 -100.5h-342q-139 0 -239.5 101.5t-100.5 238.5zM510 2048h172l172 -344h-172zM512 340q0 -68 50 -118t122 -50t121 51t49 117v856q0 68 -50 118 t-120 50q-74 0 -123 -49t-49 -119v-856z" />
<glyph unicode="&#xd3;" d="M172 340v856q0 137 99.5 238.5t240.5 101.5h342q141 0 241.5 -101.5t100.5 -238.5v-856q0 -139 -101.5 -239.5t-240.5 -100.5h-342q-139 0 -239.5 101.5t-100.5 238.5zM510 1704l172 344h172l-172 -344h-172zM512 340q0 -68 50 -118t122 -50t121 51t49 117v856 q0 68 -50 118t-120 50q-74 0 -123 -49t-49 -119v-856z" />
<glyph unicode="&#xd4;" d="M172 340v856q0 137 99.5 238.5t240.5 101.5h342q141 0 241.5 -101.5t100.5 -238.5v-856q0 -139 -101.5 -239.5t-240.5 -100.5h-342q-139 0 -239.5 101.5t-100.5 238.5zM342 1704l256 344h168l256 -344h-168l-172 172l-172 -172h-168zM512 340q0 -68 50 -118t122 -50 t121 51t49 117v856q0 68 -50 118t-120 50q-74 0 -123 -49t-49 -119v-856z" />
<glyph unicode="&#xd5;" d="M172 340v856q0 137 99.5 238.5t240.5 101.5h342q141 0 241.5 -101.5t100.5 -238.5v-856q0 -139 -101.5 -239.5t-240.5 -100.5h-342q-139 0 -239.5 101.5t-100.5 238.5zM172 1704q37 344 340 344q98 0 213 -100l23 -21q57 -51 106 -51q147 0 170 172h172 q-41 -344 -342 -344q-96 0 -213 100l-23 23q-59 49 -106 49q-147 0 -170 -172h-170zM512 340q0 -68 50 -118t122 -50t121 51t49 117v856q0 68 -50 118t-120 50q-74 0 -123 -49t-49 -119v-856z" />
<glyph unicode="&#xd6;" d="M172 340v856q0 137 99.5 238.5t240.5 101.5h342q141 0 241.5 -101.5t100.5 -238.5v-856q0 -139 -101.5 -239.5t-240.5 -100.5h-342q-139 0 -239.5 101.5t-100.5 238.5zM342 1704v213h199v-213h-199zM512 340q0 -68 50 -118t122 -50t121 51t49 117v856q0 68 -50 118 t-120 50q-74 0 -123 -49t-49 -119v-856zM823 1704v213h199v-213h-199z" />
<glyph unicode="&#xd8;" d="M172 0l72 131q-72 113 -72 209v856q0 137 99.5 238.5t240.5 101.5h342q80 0 152 -35l18 35h172l-74 -131q74 -115 74 -209v-856q0 -139 -101.5 -239.5t-240.5 -100.5h-342q-76 0 -152 35l-18 -35h-170zM512 614l340 611q-37 139 -168 139q-74 0 -123 -49t-49 -119v-582z M516 315q25 -143 168 -143q72 0 121 51t49 117v582z" />
<glyph unicode="&#xd9;" d="M172 340v1196h340v-1196q0 -68 50 -118t122 -50t121 51t49 117v1196h342v-1196q0 -139 -101.5 -239.5t-240.5 -100.5h-342q-139 0 -239.5 101.5t-100.5 238.5zM510 2048h172l172 -344h-172z" />
<glyph unicode="&#xda;" d="M172 340v1196h340v-1196q0 -68 50 -118t122 -50t121 51t49 117v1196h342v-1196q0 -139 -101.5 -239.5t-240.5 -100.5h-342q-139 0 -239.5 101.5t-100.5 238.5zM510 1704l172 344h172l-172 -344h-172z" />
<glyph unicode="&#xdb;" d="M172 340v1196h340v-1196q0 -68 50 -118t122 -50t121 51t49 117v1196h342v-1196q0 -139 -101.5 -239.5t-240.5 -100.5h-342q-139 0 -239.5 101.5t-100.5 238.5zM342 1704l256 344h168l256 -344h-168l-172 172l-172 -172h-168z" />
<glyph unicode="&#xdc;" d="M172 340v1196h340v-1196q0 -68 50 -118t122 -50t121 51t49 117v1196h342v-1196q0 -139 -101.5 -239.5t-240.5 -100.5h-342q-139 0 -239.5 101.5t-100.5 238.5zM342 1704v213h199v-213h-199zM823 1704v213h199v-213h-199z" />
<glyph unicode="&#xdd;" d="M172 0h170v-172h682v172h172v-340h-1024v340z" />
<glyph unicode="&#xde;" horiz-adv-x="2220" d="M172 512v172h426v-172h-426zM172 1364v172h1024v-172h-1024zM768 596l428 428v-340h682v680h-342v172h512v-1024h-852v-340z" />
<glyph unicode="&#xdf;" d="M172 0v1196q0 137 99.5 238.5t240.5 101.5h342q141 0 241.5 -101.5t100.5 -238.5q0 -152 -86 -238t-256 -106q170 0 256 -109.5t86 -230.5v-172q0 -113 -98.5 -226.5t-243.5 -113.5h-170v172h14q23 0 72 21.5t66.5 58.5t17.5 88v256q0 88 -56.5 130t-99.5 42h-14v172h14 q25 0 46.5 9t65.5 43t44 116v88q0 68 -50 118t-120 50q-74 0 -123 -49t-49 -119v-1196h-340z" />
<glyph unicode="&#xe0;" d="M172 340q0 143 101.5 243.5t238.5 100.5h342v168q0 72 -50 122t-120 50h-172q-147 0 -170 -172h-170q37 344 340 344h342q143 0 240 -102q102 -98 102 -242v-852h-342v172q-18 -172 -170 -172h-172q-139 0 -239.5 101.5t-100.5 238.5zM510 1708h172l172 -344h-172z M512 342q0 -70 50 -120t122 -50t121 51t49 117v172h-170q-72 0 -122 -50t-50 -120z" />
<glyph unicode="&#xe1;" d="M172 340q0 143 101.5 243.5t238.5 100.5h342v168q0 72 -50 122t-120 50h-172q-147 0 -170 -172h-170q37 344 340 344h342q143 0 240 -102q102 -98 102 -242v-852h-342v172q-18 -172 -170 -172h-172q-139 0 -239.5 101.5t-100.5 238.5zM510 1364l172 344h172l-172 -344 h-172zM512 342q0 -70 50 -120t122 -50t121 51t49 117v172h-170q-72 0 -122 -50t-50 -120z" />
<glyph unicode="&#xe2;" d="M172 340q0 143 101.5 243.5t238.5 100.5h342v168q0 72 -50 122t-120 50h-172q-147 0 -170 -172h-170q37 344 340 344h342q143 0 240 -102q102 -98 102 -242v-852h-342v172q-18 -172 -170 -172h-172q-139 0 -239.5 101.5t-100.5 238.5zM342 1364l256 344h168l256 -344 h-168l-172 172l-172 -172h-168zM512 342q0 -70 50 -120t122 -50t121 51t49 117v172h-170q-72 0 -122 -50t-50 -120z" />
<glyph unicode="&#xe3;" d="M172 340q0 143 101.5 243.5t238.5 100.5h342v168q0 72 -50 122t-120 50h-172q-147 0 -170 -172h-170q37 344 340 344h342q143 0 240 -102q102 -98 102 -242v-852h-342v172q-18 -172 -170 -172h-172q-139 0 -239.5 101.5t-100.5 238.5zM172 1364q37 344 340 344 q98 0 213 -100l23 -21q57 -51 106 -51q147 0 170 172h172q-41 -344 -342 -344q-96 0 -213 100l-23 23q-59 49 -106 49q-147 0 -170 -172h-170zM512 342q0 -70 50 -120t122 -50t121 51t49 117v172h-170q-72 0 -122 -50t-50 -120z" />
<glyph unicode="&#xe4;" d="M172 340q0 143 101.5 243.5t238.5 100.5h342v168q0 72 -50 122t-120 50h-172q-147 0 -170 -172h-170q37 344 340 344h342q143 0 240 -102q102 -98 102 -242v-852h-342v172q-18 -172 -170 -172h-172q-139 0 -239.5 101.5t-100.5 238.5zM342 1364v213h199v-213h-199z M512 342q0 -70 50 -120t122 -50t121 51t49 117v172h-170q-72 0 -122 -50t-50 -120zM823 1364v213h199v-213h-199z" />
<glyph unicode="&#xe5;" d="M172 340q0 143 101.5 243.5t238.5 100.5h342v168q0 72 -50 122t-120 50h-172q-147 0 -170 -172h-170q37 344 340 344h342q143 0 240 -102q102 -98 102 -242v-852h-342v172q-18 -172 -170 -172h-172q-139 0 -239.5 101.5t-100.5 238.5zM342 1708q0 137 99.5 238.5 t240.5 101.5q139 0 239.5 -100.5t100.5 -241.5q0 -137 -98.5 -239.5t-241.5 -102.5q-139 0 -239.5 102.5t-100.5 241.5zM510 1708q0 -72 50 -122t122 -50t122 51t50 121q0 63 -50 115.5t-122 52.5t-122 -50t-50 -118zM512 342q0 -70 50 -120t122 -50t121 51t49 117v172h-170 q-72 0 -122 -50t-50 -120z" />
<glyph unicode="&#xe6;" horiz-adv-x="2048" d="M172 340q0 143 101.5 243.5t238.5 100.5h342v168q0 72 -50 122t-120 50h-172q-147 0 -170 -172h-170q37 344 340 344h342q80 0 170 -47q90 47 172 47h340q139 0 240.5 -101.5t101.5 -242.5v-340h-682v-172q0 -70 49 -119t121 -49h170q172 0 172 168h170 q-41 -340 -342 -340h-340q-86 0 -172 47q-88 -47 -170 -47h-342q-139 0 -239.5 101.5t-100.5 238.5zM512 342q0 -70 50 -120t122 -50t121 51t49 117v172h-170q-72 0 -122 -50t-50 -120zM1196 684h340v168q0 72 -50 122t-120 50t-120 -50t-50 -122v-168z" />
<glyph unicode="&#xe7;" horiz-adv-x="1196" d="M172 340v512q0 143 101.5 243.5t238.5 100.5h172q162 0 251 -87t89 -257h-170q-18 172 -170 172q-72 0 -122 -50t-50 -122v-512q0 -68 50 -118t122 -50q150 0 170 168h170q0 -166 -89 -253t-251 -87h-86q104 0 180 -76t76 -180q0 -109 -72 -180q-68 -76 -174 -76 q-37 0 -108 18l65 158l35 -4q41 0 62.5 21.5t21.5 62.5t-21.5 62.5t-64.5 21.5h-86v172q-340 39 -340 340z" />
<glyph unicode="&#xe8;" d="M172 340v512q0 143 101.5 243.5t238.5 100.5h342q143 0 240 -102q102 -98 102 -242v-340h-684v-172q0 -68 50 -118t122 -50h170q170 0 170 168h172q-41 -340 -342 -340h-342q-139 0 -239.5 101.5t-100.5 238.5zM510 1708h172l172 -344h-172zM512 684h342v168 q0 72 -50 122t-120 50q-72 0 -122 -50t-50 -122v-168z" />
<glyph unicode="&#xe9;" d="M172 340v512q0 143 101.5 243.5t238.5 100.5h342q143 0 240 -102q102 -98 102 -242v-340h-684v-172q0 -68 50 -118t122 -50h170q170 0 170 168h172q-41 -340 -342 -340h-342q-139 0 -239.5 101.5t-100.5 238.5zM510 1364l172 344h172l-172 -344h-172zM512 684h342v168 q0 72 -50 122t-120 50q-72 0 -122 -50t-50 -122v-168z" />
<glyph unicode="&#xea;" d="M172 340v512q0 143 101.5 243.5t238.5 100.5h342q143 0 240 -102q102 -98 102 -242v-340h-684v-172q0 -68 50 -118t122 -50h170q170 0 170 168h172q-41 -340 -342 -340h-342q-139 0 -239.5 101.5t-100.5 238.5zM342 1364l256 344h168l256 -344h-168l-172 172l-172 -172 h-168zM512 684h342v168q0 72 -50 122t-120 50q-72 0 -122 -50t-50 -122v-168z" />
<glyph unicode="&#xeb;" d="M172 340v512q0 143 101.5 243.5t238.5 100.5h342q143 0 240 -102q102 -98 102 -242v-340h-684v-172q0 -68 50 -118t122 -50h170q170 0 170 168h172q-41 -340 -342 -340h-342q-139 0 -239.5 101.5t-100.5 238.5zM342 1364v213h199v-213h-199zM512 684h342v168 q0 72 -50 122t-120 50q-72 0 -122 -50t-50 -122v-168zM823 1364v213h199v-213h-199z" />
<glyph unicode="&#xec;" horiz-adv-x="684" d="M168 1708h172l172 -344h-172zM172 0v1196h340v-1196h-340z" />
<glyph unicode="&#xed;" horiz-adv-x="684" d="M168 1364l172 344h172l-172 -344h-172zM172 0v1196h340v-1196h-340z" />
<glyph unicode="&#xee;" horiz-adv-x="684" d="M0 1364l256 344h168l256 -344h-168l-172 172l-172 -172h-168zM172 0v1196h340v-1196h-340z" />
<glyph unicode="&#xef;" horiz-adv-x="684" d="M0 1364v213h199v-213h-199zM172 0v1196h340v-1196h-340zM481 1364v213h199v-213h-199z" />
<glyph unicode="&#xf1;" d="M172 0v1196h340v-172q8 84 52 128t120 44h170q143 0 240 -102q102 -98 102 -242v-852h-342v852q0 72 -50 122t-120 50q-72 0 -122 -50t-50 -122v-852h-340zM172 1364q37 344 340 344q98 0 213 -100l23 -21q57 -51 106 -51q147 0 170 172h172q-41 -344 -342 -344 q-96 0 -213 100l-23 23q-59 49 -106 49q-147 0 -170 -172h-170z" />
<glyph unicode="&#xf2;" d="M172 340v512q0 143 101.5 243.5t238.5 100.5h342q143 0 240 -102q102 -98 102 -242v-512q0 -139 -101.5 -239.5t-240.5 -100.5h-342q-139 0 -239.5 101.5t-100.5 238.5zM510 1708h172l172 -344h-172zM512 340q0 -68 50 -118t122 -50t121 51t49 117v512q0 72 -50 122 t-120 50q-72 0 -122 -50t-50 -122v-512z" />
<glyph unicode="&#xf3;" d="M172 340v512q0 143 101.5 243.5t238.5 100.5h342q143 0 240 -102q102 -98 102 -242v-512q0 -139 -101.5 -239.5t-240.5 -100.5h-342q-139 0 -239.5 101.5t-100.5 238.5zM510 1364l172 344h172l-172 -344h-172zM512 340q0 -68 50 -118t122 -50t121 51t49 117v512 q0 72 -50 122t-120 50q-72 0 -122 -50t-50 -122v-512z" />
<glyph unicode="&#xf4;" d="M172 340v512q0 143 101.5 243.5t238.5 100.5h342q143 0 240 -102q102 -98 102 -242v-512q0 -139 -101.5 -239.5t-240.5 -100.5h-342q-139 0 -239.5 101.5t-100.5 238.5zM342 1364l256 344h168l256 -344h-168l-172 172l-172 -172h-168zM512 340q0 -68 50 -118t122 -50 t121 51t49 117v512q0 72 -50 122t-120 50q-72 0 -122 -50t-50 -122v-512z" />
<glyph unicode="&#xf5;" d="M172 340v512q0 143 101.5 243.5t238.5 100.5h342q143 0 240 -102q102 -98 102 -242v-512q0 -139 -101.5 -239.5t-240.5 -100.5h-342q-139 0 -239.5 101.5t-100.5 238.5zM172 1364q37 344 340 344q98 0 213 -100l23 -21q57 -51 106 -51q147 0 170 172h172 q-41 -344 -342 -344q-96 0 -213 100l-23 23q-59 49 -106 49q-147 0 -170 -172h-170zM512 340q0 -68 50 -118t122 -50t121 51t49 117v512q0 72 -50 122t-120 50q-72 0 -122 -50t-50 -122v-512z" />
<glyph unicode="&#xf6;" d="M172 340v512q0 143 101.5 243.5t238.5 100.5h342q143 0 240 -102q102 -98 102 -242v-512q0 -139 -101.5 -239.5t-240.5 -100.5h-342q-139 0 -239.5 101.5t-100.5 238.5zM342 1364v213h199v-213h-199zM512 340q0 -68 50 -118t122 -50t121 51t49 117v512q0 72 -50 122 t-120 50q-72 0 -122 -50t-50 -122v-512zM823 1364v213h199v-213h-199z" />
<glyph unicode="&#xf7;" horiz-adv-x="1196" d="M172 512v172h852v-172h-852zM512 172v168h172v-168h-172zM512 852v172h172v-172h-172z" />
<glyph unicode="&#xf8;" d="M172 0l84 117q-84 115 -84 223v512q0 143 101.5 243.5t238.5 100.5h342q68 0 147 -35l23 35h172l-84 -119q84 -119 84 -225v-512q0 -139 -101.5 -239.5t-240.5 -100.5h-342q-74 0 -147 33l-23 -33h-170zM512 477l324 453q-59 94 -152 94q-72 0 -122 -50t-50 -122v-375z M530 264q61 -92 154 -92q70 0 120 50t50 118v377z" />
<glyph unicode="&#xf9;" d="M172 340v856h340v-856q0 -68 50 -118t122 -50t121 51t49 117v856h342v-1196h-342v172q-18 -172 -170 -172h-172q-139 0 -239.5 101.5t-100.5 238.5zM510 1708h172l172 -344h-172z" />
<glyph unicode="&#xfa;" d="M172 340v856h340v-856q0 -68 50 -118t122 -50t121 51t49 117v856h342v-1196h-342v172q-18 -172 -170 -172h-172q-139 0 -239.5 101.5t-100.5 238.5zM553 1364l172 344h172l-172 -344h-172z" />
<glyph unicode="&#xfb;" d="M172 340v856h340v-856q0 -68 50 -118t122 -50t121 51t49 117v856h342v-1196h-342v172q-18 -172 -170 -172h-172q-139 0 -239.5 101.5t-100.5 238.5zM342 1364l256 344h168l256 -344h-168l-172 172l-172 -172h-168z" />
<glyph unicode="&#xfc;" d="M172 340v856h340v-856q0 -68 50 -118t122 -50t121 51t49 117v856h342v-1196h-342v172q-18 -172 -170 -172h-172q-139 0 -239.5 101.5t-100.5 238.5zM342 1364v213h199v-213h-199zM823 1364v213h199v-213h-199z" />
<glyph unicode="&#xfd;" horiz-adv-x="2220" d="M84 768l768 768h1196v-1536h-1196zM340 768l600 -596h936v1192h-936zM1004 526l241 242l-241 242l120 120l240 -241l242 241l120 -120l-239 -242l239 -242l-120 -120l-242 241l-240 -241z" />
<glyph unicode="&#xfe;" horiz-adv-x="1708" d="M172 0v1536h938l426 -428v-1108h-1364zM342 172h1024v768h-512v424h-512v-1192zM512 596h172v172h340v-172h172l-342 -340zM1024 1108h256l-256 256v-256z" />
<glyph unicode="&#xff;" d="M172 -172h170q0 -82 45 -125t125 -43h172q70 0 120 49t50 119v344q-18 -172 -170 -172h-172q-139 0 -239.5 101.5t-100.5 238.5v856h340v-856q0 -68 50 -118t122 -50t121 51t49 117v856h342v-1368q0 -139 -100.5 -239.5t-241.5 -100.5h-342q-301 0 -340 340zM342 1364 v213h199v-213h-199zM823 1364v213h199v-213h-199z" />
<glyph unicode="&#x152;" horiz-adv-x="1875" d="M172 340v856q0 137 99.5 238.5t240.5 101.5h1196v-172h-512v-512h340v-168h-340v-512h512v-172h-1196q-139 0 -239.5 101.5t-100.5 238.5zM512 340q0 -68 50 -118t122 -50t121 51t49 117v856q0 68 -50 118t-120 50q-74 0 -123 -49t-49 -119v-856z" />
<glyph unicode="&#x153;" horiz-adv-x="2048" d="M172 340v512q0 143 101.5 243.5t238.5 100.5h342q80 0 170 -47q90 47 172 47h340q139 0 240.5 -101.5t101.5 -242.5v-340h-682v-172q0 -70 49 -119t121 -49h170q172 0 172 168h170q-41 -340 -342 -340h-340q-86 0 -172 47q-88 -47 -170 -47h-342q-139 0 -239.5 101.5 t-100.5 238.5zM512 340q0 -68 50 -118t122 -50t121 51t49 117v512q0 72 -50 122t-120 50q-72 0 -122 -50t-50 -122v-512zM1196 684h340v168q0 72 -50 122t-120 50t-120 -50t-50 -122v-168z" />
<glyph unicode="&#x178;" d="M172 1024v512h340v-512q0 -70 51 -121t121 -51q68 0 119 50t51 122v512h342v-512q0 -301 -342 -340v-684h-342v684q-340 37 -340 340zM342 1704v213h199v-213h-199zM823 1704v213h199v-213h-199z" />
<glyph unicode="&#x2000;" horiz-adv-x="1024" />
<glyph unicode="&#x2001;" horiz-adv-x="2048" />
<glyph unicode="&#x2002;" horiz-adv-x="1024" />
<glyph unicode="&#x2003;" horiz-adv-x="2048" />
<glyph unicode="&#x2004;" horiz-adv-x="682" />
<glyph unicode="&#x2005;" horiz-adv-x="512" />
<glyph unicode="&#x2006;" horiz-adv-x="341" />
<glyph unicode="&#x2007;" horiz-adv-x="341" />
<glyph unicode="&#x2008;" horiz-adv-x="256" />
<glyph unicode="&#x2009;" horiz-adv-x="409" />
<glyph unicode="&#x200a;" horiz-adv-x="113" />
<glyph unicode="&#x2010;" horiz-adv-x="1196" d="M172 512v172h852v-172h-852z" />
<glyph unicode="&#x2011;" horiz-adv-x="1196" d="M172 512v172h852v-172h-852z" />
<glyph unicode="&#x2012;" horiz-adv-x="1196" d="M172 512v172h852v-172h-852z" />
<glyph unicode="&#x2013;" horiz-adv-x="1024" d="M172 512v172h682v-172h-682z" />
<glyph unicode="&#x2014;" horiz-adv-x="1708" d="M172 512v172h1364v-172h-1364z" />
<glyph unicode="&#x2018;" horiz-adv-x="684" d="M172 852v344q0 301 340 340v-172q-172 0 -172 -168h172v-344h-340z" />
<glyph unicode="&#x2019;" horiz-adv-x="684" d="M172 852v172q170 0 170 172h-170v340h340v-340q0 -305 -340 -344z" />
<glyph unicode="&#x201a;" horiz-adv-x="684" d="M172 0v340h340v-340q0 -303 -340 -340v168q152 18 170 172h-170z" />
<glyph unicode="&#x201c;" horiz-adv-x="1196" d="M172 852v344q0 301 340 340v-172q-172 0 -172 -168h172v-344h-340zM684 852v344q0 301 340 340v-172q-172 0 -172 -168h172v-344h-340z" />
<glyph unicode="&#x201d;" horiz-adv-x="1196" d="M172 852v172q170 0 170 172h-170v340h340v-340q0 -305 -340 -344zM684 852v172q170 0 170 172h-170v340h340v-340q0 -305 -340 -344z" />
<glyph unicode="&#x201e;" horiz-adv-x="1196" d="M172 0v340h340v-340q0 -303 -340 -340v168q152 18 170 172h-170zM684 0v340h340v-340q0 -303 -340 -340v168q152 18 170 172h-170z" />
<glyph unicode="&#x2022;" horiz-adv-x="1196" d="M172 768q0 176 126 302t300 126t300 -126t126 -302q0 -174 -125 -301t-301 -127q-174 0 -300 126t-126 302z" />
<glyph unicode="&#x2026;" horiz-adv-x="2387" d="M172 0v340h340v-340h-340zM854 0v340h342v-340h-342zM1536 0v340h342v-340h-342z" />
<glyph unicode="&#x202f;" horiz-adv-x="409" />
<glyph unicode="&#x2039;" horiz-adv-x="1024" d="M172 596l596 598v-170l-426 -428l426 -426v-170z" />
<glyph unicode="&#x203a;" horiz-adv-x="1024" d="M256 0v170l426 426l-426 428v170l596 -598z" />
<glyph unicode="&#x205f;" horiz-adv-x="512" />
<glyph unicode="&#x2122;" horiz-adv-x="1875" d="M172 1364v172h512v-172h-172v-512h-170v512h-170zM854 852v684h86l340 -340l340 340h88v-684h-172v344l-256 -256l-256 256v-344h-170z" />
<glyph unicode="&#x25fc;" horiz-adv-x="1198" d="M0 0v1198h1198v-1198h-1198z" />
</font>
</defs>
</svg>
